<svg width="64" height="37" viewBox="0 0 64 37" fill="none" xmlns="http://www.w3.org/2000/svg">
<path d="M15.3 36.2001C12.1333 36.2001 9.39995 35.4334 7.09995 33.9001C4.79995 32.3668 3.03328 30.2501 1.79995 27.5501C0.599951 24.8168 -4.86374e-05 21.6668 -4.86374e-05 18.1001C-4.86374e-05 14.5334 0.599951 11.4001 1.79995 8.7001C3.03328 5.96676 4.78328 3.83343 7.04995 2.3001C9.34995 0.766764 12.1 9.70364e-05 15.3 9.70364e-05C18.5 9.70364e-05 21.2333 0.766764 23.5 2.3001C25.8 3.83343 27.55 5.96676 28.75 8.7001C29.9833 11.4001 30.6 14.5334 30.6 18.1001C30.6 21.6668 29.9833 24.8168 28.75 27.5501C27.55 30.2501 25.8 32.3668 23.5 33.9001C21.2333 35.4334 18.5 36.2001 15.3 36.2001ZM15.3 30.1501C16.9666 30.1501 18.4333 29.6668 19.7 28.7001C20.9666 27.7001 21.95 26.3001 22.65 24.5001C23.3833 22.7001 23.75 20.5668 23.75 18.1001C23.75 15.6001 23.3833 13.4668 22.65 11.7001C21.95 9.9001 20.9666 8.51676 19.7 7.5501C18.4333 6.58343 16.9666 6.1001 15.3 6.1001C13.6333 6.1001 12.1666 6.58343 10.9 7.5501C9.63328 8.51676 8.63329 9.9001 7.89995 11.7001C7.19995 13.4668 6.84995 15.6001 6.84995 18.1001C6.84995 20.5668 7.19995 22.7001 7.89995 24.5001C8.63329 26.3001 9.63328 27.7001 10.9 28.7001C12.1666 29.6668 13.6333 30.1501 15.3 30.1501ZM52.355 35.6001V29.2501H35.155V23.9001L51.455 0.600095H59.105V23.4001H63.655V29.2501H59.105V35.6001H52.355ZM42.355 23.4001H52.805V8.0501L42.355 23.4001Z" fill="url(#paint0_linear_12240_238)"/>
<defs>
<linearGradient id="paint0_linear_12240_238" x1="32.2857" y1="-26.8999" x2="32.2857" y2="56.6001" gradientUnits="userSpaceOnUse">
<stop stop-color="white"/>
<stop offset="1" stop-color="#006B7D"/>
</linearGradient>
</defs>
</svg>
