<svg width="1728" height="915" viewBox="0 0 1728 915" fill="none" xmlns="http://www.w3.org/2000/svg">
<path opacity="0.5" d="M-74.8 914.617C-51.8 798.117 51.6 702.217 169.4 688.017C229.5 680.817 290 692.917 349.6 703.117C409.2 713.317 471 721.717 529.8 707.317C588.6 692.917 644.3 650.617 657.4 591.517C664.4 559.917 654.5 520.717 624.4 508.817C590.8 495.517 556 522.517 521.1 531.517C462.9 546.517 403.4 509.917 363 465.517C322.5 421.117 292 367.217 244.8 329.917C178.3 277.317 85.8 265.517 3.3 284.517C-79.2 303.517 -153.1 350.217 -218 404.717L-74.8 914.617Z" fill="#332E30"/>
<path d="M1501.86 774C1441.03 770.84 1381.8 752.973 1336.26 723.993C1282.15 689.565 1248.98 641.683 1221.7 593.746C1194.41 545.809 1171.41 496.129 1132.13 452.713C1092.85 409.297 1033.77 371.71 962.242 363.103C917.382 357.711 870.687 363.921 826.285 357.002C685.744 334.995 627.891 195.542 486.356 176.966C425.829 169.013 363.774 186.009 302.482 181.923C222.315 176.53 150.553 131.263 133.282 75.209" stroke="#F2E5D5" stroke-miterlimit="10"/>
<path d="M1510.27 768.443C1450.13 763.432 1390.52 745.074 1343.67 717.129C1299.95 691.145 1268.16 658.297 1242.56 624.523C1235.38 615.045 1228.65 605.458 1222.16 595.925C1206.03 572.338 1191.05 548.151 1173.78 523.42C1159.18 502.556 1143.75 481.203 1125.79 460.829C1118.53 452.604 1110.81 444.542 1102.55 436.807C1073.82 409.787 1039.12 386.908 999.001 374.107C988.531 370.784 977.756 368.115 966.598 366.263C934.882 360.924 901.944 361.959 869.159 358.909C858.994 357.983 848.83 356.621 838.666 354.605C804.046 347.633 773.706 333.524 744.971 316.855C715.548 299.75 688.495 280.194 661.288 260.257C615.511 226.592 569.657 192.164 510.276 178.219C504.697 176.912 498.966 175.768 493.081 174.842C436.91 165.853 379.44 177.456 321.741 175.005C317.614 174.842 313.487 174.569 309.36 174.242C228.428 167.76 154.298 125.325 134.275 74.4463" stroke="#F2E5D5" stroke-miterlimit="10"/>
<path d="M1518.75 762.833C1459.37 756.023 1399.38 737.066 1351.16 710.156C1306.07 684.989 1271.98 654.43 1244.47 623.815C1236.83 615.208 1229.57 606.547 1222.54 597.94C1205.19 576.641 1188.68 554.906 1169.65 531.155C1153.6 511.109 1137.25 489.646 1119.37 468.837C1112.11 460.448 1104.54 452.168 1096.67 444.215C1069.16 416.379 1037.44 392.519 1000.61 378.411C990.977 374.761 981.042 371.71 970.801 369.422C941.531 362.831 911.115 362.341 880.011 357.765C870.381 356.349 860.676 354.605 850.893 352.154C817.573 343.874 787.233 328.894 757.81 312.497C727.47 295.665 699.117 277.743 670.764 258.731C623.153 226.646 576.076 191.892 516.849 176.476C511.27 175.005 505.538 173.752 499.73 172.663C443.788 162.149 386.853 171.028 328.619 167.488C324.415 167.215 320.289 166.943 316.085 166.507C234.313 158.881 157.89 119.333 135.116 73.5747" stroke="#F2E5D5" stroke-miterlimit="10"/>
<path d="M1527.16 757.222C1468.47 748.615 1408.17 729.059 1358.57 703.184C1312.03 678.834 1275.5 650.616 1246.38 623.107C1238.21 615.372 1230.56 607.691 1223 600.01C1204.35 581.053 1186.39 561.661 1165.6 538.945C1148.1 519.77 1130.83 498.144 1113.02 476.899C1105.84 468.347 1098.43 459.849 1090.94 451.623C1064.65 422.97 1035.91 398.184 1002.36 382.659C993.652 378.628 984.557 375.251 975.157 372.527C948.409 364.737 920.438 362.613 891.016 356.621C881.921 354.769 872.598 352.59 863.198 349.757C831.1 340.115 800.913 324.263 770.649 308.194C739.392 291.634 709.817 275.346 680.317 257.315C630.795 226.81 582.572 191.728 523.497 174.842C517.919 173.262 512.263 171.845 506.455 170.593C450.819 158.554 394.266 164.709 335.573 160.079C331.37 159.752 327.167 159.371 322.964 158.935C240.427 150.165 161.711 113.504 136.11 72.9209" stroke="#F2E5D5" stroke-miterlimit="10"/>
<path d="M1535.57 751.611C1477.64 741.152 1416.88 721.106 1365.98 696.211C1317.99 672.733 1279.17 646.804 1248.29 622.399C1239.58 615.536 1231.48 608.781 1223.38 602.081C1203.36 585.466 1183.94 568.47 1161.55 546.735C1142.68 528.377 1124.41 506.642 1106.6 484.907C1099.42 476.192 1092.24 467.421 1085.05 459.032C1060.06 429.562 1034.23 403.796 1003.97 386.963C996.097 382.605 987.843 378.847 979.36 375.687C955.134 366.699 929.533 362.886 901.868 355.477C893.308 353.189 884.443 350.52 875.425 347.306C844.627 336.303 814.516 319.634 783.412 303.836C751.238 287.548 720.363 272.949 689.717 255.79C638.285 226.974 588.915 191.457 529.993 173.099C524.414 171.356 518.836 169.83 513.027 168.414C457.697 154.796 401.526 158.282 342.375 152.562C338.172 152.126 333.892 151.691 329.612 151.2C246.311 141.286 165.226 107.512 136.873 72.0498" stroke="#F2E5D5" stroke-miterlimit="10"/>
<path d="M1544.05 746.054C1486.81 733.798 1425.67 713.207 1373.47 689.293C1324.03 666.686 1282.91 642.99 1250.2 621.745C1241.03 615.753 1232.4 609.924 1223.84 604.204C1202.52 589.932 1181.65 575.333 1157.5 554.579C1137.17 537.093 1118.07 515.194 1100.26 493.023C1093.08 484.09 1086.05 475.156 1079.25 466.495C1055.48 436.153 1032.7 409.406 1005.65 391.321C998.619 386.636 991.282 382.496 983.64 378.901C961.86 368.659 938.78 363.267 912.872 354.387C904.848 351.664 896.441 348.559 887.806 344.963C858.23 332.652 828.272 315.112 796.404 299.587C763.313 283.571 731.139 270.606 699.423 254.373C646.156 227.136 595.564 191.238 536.795 171.464C531.293 169.612 525.637 167.869 519.906 166.343C464.805 151.2 409.092 151.962 349.559 145.208C345.279 144.717 340.999 144.173 336.72 143.628C252.654 132.57 169.2 101.683 138.096 71.3955" stroke="#F2E5D5" stroke-miterlimit="10"/>
<path d="M1552.46 740.444C1495.98 726.335 1434.38 705.199 1380.89 682.32C1329.99 660.531 1286.58 639.177 1252.11 621.037C1242.48 615.971 1233.39 611.014 1224.22 606.22C1201.6 594.29 1179.28 582.034 1153.38 562.314C1131.6 545.645 1111.57 523.638 1093.84 501.031C1086.73 491.934 1079.86 482.782 1073.44 473.903C1050.89 442.744 1031.1 415.017 1007.33 395.57C1001.14 390.504 994.645 385.982 987.92 382.006C968.661 370.566 948.027 363.539 923.801 353.189C916.312 349.975 908.364 346.489 900.11 342.512C871.833 328.839 841.952 310.482 809.243 295.229C775.235 279.486 741.838 268.21 708.9 252.848C653.799 227.191 601.984 190.966 543.367 169.721C537.865 167.706 532.286 165.853 526.554 164.165C471.759 147.441 416.505 145.535 356.437 137.69C352.157 137.146 347.801 136.546 343.445 135.893C258.616 123.691 172.869 95.6911 138.937 70.5786" stroke="#F2E5D5" stroke-miterlimit="10"/>
<path d="M1560.86 734.833C1505.07 718.927 1443.1 697.246 1388.3 675.348C1335.95 654.43 1290.33 635.364 1254.02 620.329C1243.86 616.135 1234.31 612.158 1224.68 608.29C1200.68 598.703 1176.99 588.843 1149.33 570.104C1126.09 554.307 1105.15 532.136 1087.5 509.039C1080.39 499.779 1073.74 490.409 1067.63 481.257C1046.31 449.281 1029.49 420.628 1009.01 399.819C1003.66 394.426 998.084 389.523 992.2 385.111C975.387 372.419 957.274 363.812 934.729 352.045C927.775 348.396 920.286 344.473 912.414 340.061C885.36 325.081 855.632 305.797 822.082 290.871C787.157 275.401 752.461 265.759 718.376 251.378C661.441 227.3 608.403 190.748 549.94 168.033C544.437 165.908 538.858 163.893 533.203 161.986C478.713 143.737 423.842 139.107 363.315 130.173C358.959 129.52 354.603 128.866 350.247 128.212C264.576 114.866 176.537 89.7536 139.854 69.7617" stroke="#F2E5D5" stroke-miterlimit="10"/>
<path d="M1569.35 729.277C1514.32 711.519 1451.88 689.348 1395.79 668.43C1341.99 648.383 1294.07 631.551 1255.94 619.676C1245.31 616.353 1235.22 613.302 1225.06 610.415C1199.69 603.17 1174.62 595.653 1145.27 577.949C1120.59 562.968 1098.73 540.689 1081.16 517.156C1074.05 507.732 1067.55 498.09 1061.82 488.775C1041.8 455.982 1027.97 426.348 1010.69 404.177C1006.26 398.457 1001.45 393.173 996.479 388.325C982.188 374.434 966.445 364.248 945.658 350.956C939.239 346.87 932.208 342.513 924.642 337.719C898.887 321.377 869.235 301.276 834.921 286.622C799.079 271.424 763.16 263.416 727.929 249.961C669.083 227.464 614.899 190.585 556.589 166.399C551.086 164.111 545.584 161.986 539.928 159.916C485.745 140.088 431.255 132.788 370.269 122.765C365.913 122.057 361.481 121.294 357.048 120.586C270.614 106.15 180.205 83.8706 140.771 69.0537" stroke="#F2E5D5" stroke-miterlimit="10"/>
<path d="M1577.75 723.666C1523.42 704.11 1460.6 681.394 1403.2 661.457C1347.95 642.282 1297.82 627.738 1257.85 618.913C1246.76 616.461 1236.14 614.337 1225.52 612.43C1198.77 607.528 1172.25 602.407 1141.22 585.684C1115.09 571.575 1092.31 549.132 1074.74 525.163C1067.71 515.576 1061.36 505.716 1055.94 496.129C1037.14 462.518 1026.28 431.904 1012.3 408.426C1008.71 402.325 1004.81 396.659 1000.68 391.43C988.913 376.286 975.616 364.52 956.51 349.757C950.625 345.236 944.053 340.388 936.869 335.267C912.338 317.563 882.838 296.645 847.684 282.21C810.924 267.284 773.783 260.965 737.329 248.381C676.649 227.464 621.242 190.258 563.085 164.601C557.659 162.204 552.08 159.916 546.501 157.682C492.546 136.329 438.515 126.306 377.071 115.193C372.639 114.376 368.206 113.613 363.773 112.796C276.575 97.2165 183.874 77.8238 141.612 68.1274" stroke="#F2E5D5" stroke-miterlimit="10"/>
<path d="M1586.16 718.056C1532.59 696.647 1469.31 673.441 1410.62 654.485C1353.91 636.181 1301.48 623.87 1259.68 618.205C1248.14 616.625 1236.98 615.481 1225.9 614.446C1197.78 611.94 1169.88 609.162 1137.1 593.419C1109.51 580.128 1085.89 557.575 1068.32 533.171C1061.29 523.42 1055.17 513.343 1050.13 503.483C1032.55 469.001 1024.68 437.515 1013.98 412.621C1011.23 406.193 1008.17 400.146 1004.96 394.426C995.639 378.03 984.863 364.683 967.439 348.505C962.089 343.548 955.975 338.264 949.173 332.707C925.941 313.696 896.518 291.906 860.523 277.743C822.846 263.09 784.405 258.405 746.805 246.748C684.291 227.409 627.662 189.877 569.657 162.749C564.231 160.243 558.728 157.737 553.15 155.395C499.501 132.516 445.852 119.769 384.026 107.567C379.593 106.695 375.084 105.824 370.651 104.952C282.689 88.2286 187.619 71.7775 142.605 67.2017" stroke="#F2E5D5" stroke-miterlimit="10"/>
<path d="M1594.64 712.499C1541.76 689.293 1478.1 665.542 1418.1 647.566C1359.87 630.134 1305.3 620.057 1261.67 617.551C1249.59 616.843 1237.98 616.461 1226.36 616.57C1196.86 616.897 1167.59 615.971 1133.05 601.263C1104.01 588.843 1079.47 566.128 1061.97 541.233C1054.94 531.264 1048.98 521.023 1044.32 510.946C1027.97 475.646 1023.07 443.18 1015.66 416.978C1013.75 410.223 1011.61 403.795 1009.24 397.64C1002.44 379.99 994.034 365.119 978.367 347.415C973.552 342.022 967.897 336.302 961.477 330.365C939.468 309.991 910.198 287.33 873.438 273.494C834.845 259.058 795.181 256.062 756.435 245.385C692.087 227.627 634.234 189.713 576.382 161.169C570.956 158.5 565.53 155.885 559.951 153.379C506.608 128.92 453.418 113.504 391.056 100.212C386.547 99.232 382.115 98.3059 377.53 97.4343C288.802 79.5669 191.363 66.0029 143.599 66.6021" stroke="#F2E5D5" stroke-miterlimit="10"/>
<path d="M1603.05 706.888C1550.93 681.83 1486.81 657.589 1425.52 640.648C1365.83 624.088 1308.97 616.243 1263.58 616.897C1251.04 617.061 1238.89 617.823 1226.82 618.695C1195.94 620.928 1165.3 622.835 1129.07 609.107C1098.58 597.559 1073.13 574.68 1055.71 549.35C1048.75 539.217 1042.94 528.704 1038.59 518.408C1023.53 482.292 1021.55 448.845 1017.42 421.281C1016.35 414.2 1015.13 407.336 1013.6 400.799C1009.32 381.951 1003.36 365.446 989.448 346.271C985.169 340.388 979.972 334.287 973.858 327.913C953.147 306.233 923.877 282.7 886.354 269.136C846.843 254.973 805.957 253.611 765.988 243.86C699.805 227.681 640.73 189.441 583.031 159.426C577.605 156.647 572.179 153.869 566.676 151.2C513.562 125.216 460.831 107.076 398.011 92.7495C393.502 91.7145 388.993 90.734 384.408 89.7534C294.84 70.742 195.184 60.0652 144.592 65.7849" stroke="#F2E5D5" stroke-miterlimit="10"/>
<path d="M1611.45 701.277C1560.02 674.422 1495.52 649.691 1432.93 633.675C1371.79 618.041 1312.72 612.376 1265.41 616.189C1252.42 617.224 1239.73 618.913 1227.12 620.765C1194.87 625.395 1162.78 629.644 1124.87 616.897C1092.93 606.166 1066.56 583.178 1049.21 557.412C1042.26 547.116 1036.68 536.385 1032.7 525.871C1018.87 488.938 1019.86 454.565 1019.02 425.64C1018.79 418.177 1018.41 410.986 1017.8 404.013C1016.04 383.913 1012.45 365.827 1000.3 345.182C996.556 338.863 991.817 332.326 986.086 325.571C966.598 302.529 937.481 278.179 899.116 264.887C858.689 250.996 816.503 251.323 775.388 242.444C707.371 227.845 647.073 189.277 589.527 157.792C584.177 154.85 578.751 151.963 573.249 149.13C520.441 121.566 468.091 100.757 404.813 85.3413C400.304 84.2518 395.718 83.1623 391.056 82.1273C300.724 61.972 198.7 54.1822 145.357 65.077" stroke="#F2E5D5" stroke-miterlimit="10"/>
<path d="M1619.94 695.721C1569.27 667.013 1504.31 641.792 1440.34 626.757C1377.68 611.995 1316.39 608.563 1267.32 615.535C1253.8 617.442 1240.65 620.111 1227.58 622.835C1194.03 629.862 1160.48 636.399 1120.82 624.687C1087.5 614.827 1060.22 591.621 1042.79 565.42C1035.84 554.961 1030.41 544.011 1026.82 533.225C1014.21 495.475 1018.18 460.122 1020.63 429.834C1021.24 422.044 1021.78 414.472 1022 407.064C1022.77 385.71 1021.62 366.1 1011.15 343.983C1007.94 337.228 1003.66 330.201 998.313 323.12C980.125 298.715 951.084 273.548 911.956 260.529C870.611 246.911 827.202 248.872 784.941 240.973C715.09 227.899 653.569 189.06 596.176 156.048C590.826 152.998 585.4 149.947 579.974 146.951C527.472 117.862 475.504 94.3294 411.767 77.8238C407.182 76.6254 402.596 75.4815 397.935 74.392C306.838 53.0927 202.445 48.1901 146.35 64.2599" stroke="#F2E5D5" stroke-miterlimit="10"/>
<path d="M1628.34 690.11C1578.36 659.605 1513.02 633.893 1447.76 619.785C1383.64 605.948 1320.05 604.695 1269.23 614.827C1255.25 617.606 1241.57 621.255 1227.96 624.905C1193.04 634.329 1158.11 643.208 1116.69 632.477C1081.92 623.434 1053.72 600.119 1036.37 573.482C1029.42 562.859 1024.22 551.692 1020.93 540.688C1009.55 502.121 1016.35 465.787 1022.23 434.192C1023.69 426.075 1025.06 418.068 1026.21 410.278C1029.49 387.726 1030.72 366.481 1022 342.894C1019.33 335.703 1015.51 328.24 1010.54 320.723C993.575 295.011 964.687 268.918 924.718 256.226C882.456 242.88 837.825 246.475 794.341 239.502C722.656 228.008 659.913 188.842 602.672 154.36C597.322 151.146 591.973 147.932 586.546 144.827C534.35 114.158 482.84 87.956 418.569 70.3609C413.983 69.108 409.322 67.9096 404.583 66.7656C312.723 44.3769 205.96 42.3069 147.114 63.4972" stroke="#F2E5D5" stroke-miterlimit="10"/>
<path d="M1636.75 684.499C1587.53 652.142 1521.66 625.94 1455.17 612.812C1389.6 599.847 1323.72 600.827 1271.07 614.119C1256.62 617.769 1242.41 622.344 1228.35 626.975C1192.05 638.796 1155.74 650.017 1112.64 640.266C1076.42 632.095 1047.3 608.617 1030.03 581.544C1023.15 570.703 1018.03 559.318 1015.2 548.097C1005.12 508.657 1014.9 471.397 1023.99 438.495C1026.28 429.997 1028.58 421.663 1030.56 413.437C1036.37 389.632 1039.96 366.808 1033.01 341.75C1030.87 334.123 1027.51 326.224 1022.85 318.326C1007.18 291.252 978.367 264.342 937.557 251.922C894.378 238.848 848.524 244.023 803.893 238.031C730.451 228.008 666.409 188.569 609.321 152.671C603.971 149.348 598.621 145.97 593.272 142.702C541.304 110.508 490.254 81.6367 425.6 62.8977C420.938 61.5359 416.276 60.283 411.538 59.0846C318.913 35.5518 209.858 36.369 148.184 62.7343" stroke="#F2E5D5" stroke-miterlimit="10"/>
<path d="M1645.23 678.888C1596.71 644.733 1530.45 618.041 1462.66 605.839C1395.56 593.8 1327.47 596.96 1273.05 613.411C1258.08 617.932 1243.48 623.488 1228.81 628.99C1191.21 643.208 1153.45 656.717 1108.59 648.002C1070.92 640.648 1040.88 617.06 1023.69 589.497C1016.81 578.493 1011.92 566.89 1009.39 555.451C1000.53 515.194 1013.29 477.008 1025.67 442.69C1028.81 433.865 1032.02 425.149 1034.84 416.488C1043.17 391.484 1049.13 367.08 1043.94 340.551C1042.33 332.489 1039.35 324.154 1035.15 315.874C1020.71 287.494 992.047 259.712 950.473 247.564C906.377 234.763 859.224 241.572 813.446 236.506C738.093 228.063 672.904 188.297 615.969 150.928C610.62 147.441 605.346 143.955 599.997 140.469C548.335 106.749 497.666 75.1544 432.554 55.3259C427.892 53.9096 423.154 52.5477 418.339 51.2948C324.874 26.6182 213.526 30.3224 149.101 61.8083" stroke="#F2E5D5" stroke-miterlimit="10"/>
<path d="M1653.64 673.332C1605.88 637.325 1539.16 610.142 1470.07 598.921C1401.52 587.754 1331.14 593.038 1274.96 612.757C1259.53 618.15 1244.4 624.687 1229.26 631.115C1190.36 647.729 1151.08 663.581 1104.54 655.846C1065.41 649.363 1034.54 625.613 1017.34 597.613C1010.46 586.446 1005.8 574.625 1003.59 562.913C995.944 521.84 1011.69 482.673 1027.35 447.048C1031.33 437.896 1035.45 428.799 1039.12 419.702C1049.98 393.445 1058.31 367.461 1054.94 339.462C1053.87 330.964 1051.35 322.193 1047.53 313.478C1034.39 283.735 1005.8 255.136 963.388 243.261C918.375 230.732 869.999 239.175 822.999 235.09C745.812 228.226 679.4 188.133 622.618 149.293C617.345 145.698 612.072 142.048 606.722 138.399C555.366 103.099 505.079 68.8354 439.508 47.9174C434.77 46.4466 430.032 45.0303 425.217 43.6684C330.988 17.8478 217.27 24.4392 150.095 61.1001" stroke="#F2E5D5" stroke-miterlimit="10"/>
<path d="M1662.05 667.721C1615.05 629.916 1547.87 602.298 1477.49 591.948C1407.48 581.761 1334.8 589.17 1276.8 612.049C1260.83 618.313 1245.24 625.831 1229.57 633.185C1189.37 652.251 1148.64 670.336 1100.34 663.636C1059.76 657.97 1027.97 634.111 1010.85 605.675C1004.05 594.345 999.46 582.252 997.702 570.376C991.283 528.486 1010.01 488.339 1028.96 451.351C1033.85 441.872 1038.74 432.34 1043.33 422.861C1056.7 395.352 1067.48 367.788 1065.79 338.318C1065.26 329.329 1063.2 320.123 1059.76 311.081C1047.84 279.976 1019.41 250.506 976.151 238.957C930.221 226.701 880.546 236.778 832.476 233.619C753.454 228.335 685.82 187.915 629.19 147.605C623.917 143.846 618.644 140.087 613.371 136.274C562.244 99.4497 512.493 62.4619 446.387 40.5089C441.648 38.9292 436.834 37.4584 432.019 36.0965C337.025 9.13197 221.015 18.6104 151.012 60.4464" stroke="#F2E5D5" stroke-miterlimit="10"/>
<path d="M1670.53 662.111C1624.22 622.454 1556.66 594.345 1484.97 584.976C1413.44 575.715 1338.55 585.357 1278.79 611.341C1262.35 618.477 1246.31 626.92 1230.1 635.255C1188.53 656.663 1146.42 677.145 1096.44 671.426C1054.41 666.632 1021.7 642.609 1004.58 613.683C997.778 602.189 993.422 589.878 991.97 577.73C986.85 535.023 1008.48 493.895 1030.72 455.6C1036.45 445.74 1042.26 435.881 1047.68 425.966C1063.58 397.259 1076.8 368.061 1076.8 337.119C1076.8 327.695 1075.19 318.054 1072.14 308.575C1061.52 276.163 1033.16 245.821 989.143 234.545C942.295 222.561 891.398 234.273 842.105 232.039C761.249 228.335 692.392 187.589 635.916 145.807C630.642 141.939 625.446 138.017 620.172 134.041C569.351 95.6367 519.982 55.9797 453.418 32.9372C448.679 31.303 443.788 29.7233 438.897 28.3069C343.139 0.198426 224.76 12.564 151.929 59.5205" stroke="#F2E5D5" stroke-miterlimit="10"/>
<path d="M1678.94 656.554C1633.39 615.1 1565.37 586.501 1492.39 578.057C1419.4 569.668 1342.22 581.544 1280.7 610.633C1220.32 639.177 1164.23 685.752 1092.31 679.215C1031.56 673.713 990.06 628.718 986.086 585.139C982.112 541.56 1006.8 499.506 1032.32 459.849C1057.85 420.192 1085.36 379.555 1087.65 335.975C1090.02 292.342 1059.76 244.459 1001.83 230.242C954.065 218.53 901.868 231.93 851.429 230.623C768.739 228.444 698.659 187.425 642.335 144.173C586.012 100.921 534.044 52.1121 460.219 25.5289C361.557 -9.98811 232.25 4.01168 152.77 58.8124" stroke="#F2E5D5" stroke-miterlimit="10"/>
<path d="M1681.31 652.414C1635.99 610.36 1567.97 581.053 1494.6 572.01C1488.41 571.248 1482.22 570.649 1476.03 570.158C1408.32 565.038 1338.17 576.804 1280.93 603.17C1270.61 607.909 1260.52 613.193 1250.36 618.586C1200.3 645.55 1150.78 677.254 1090.63 671.534C1030.95 665.978 989.983 622.126 985.321 579.419C982.952 557.629 987.767 536.221 996.174 515.303C1004.27 495.202 1015.66 475.483 1027.35 456.362C1051.12 417.305 1076.88 377.266 1078.56 334.45C1080.32 291.633 1050.74 244.949 994.951 229.915C948.333 217.386 897.206 228.389 847.302 225.992C802.747 223.868 761.402 211.067 723.649 193.526C691.934 178.818 662.893 160.787 636.68 142.593C609.855 123.908 584.101 104.298 556.818 86.3214C525.714 65.7848 492.47 47.3181 453.265 34.7346C423.46 25.2017 390.904 19.9178 357.736 18.5014C281.237 15.3419 200.763 32.6102 145.662 66.8198" stroke="#F2E5D5" stroke-miterlimit="10"/>
<path d="M1683.6 648.329C1638.51 605.621 1570.42 575.661 1496.74 566.019C1490.55 565.202 1484.36 564.548 1478.1 564.003C1410 558.338 1339.16 569.668 1281.15 595.761C1270.68 600.446 1260.44 605.676 1250.2 611.069C1199.61 637.924 1149.48 669.846 1088.87 663.908C1030.18 658.188 989.907 615.535 984.481 573.699C981.73 552.4 985.856 531.373 993.575 510.782C1000.91 491.008 1011.53 471.615 1022.31 452.767C1044.4 414.254 1068.32 374.87 1069.39 332.816C1070.46 290.762 1041.65 245.331 987.92 229.534C942.372 216.133 892.391 224.794 842.946 221.308C798.773 218.203 757.428 205.347 719.217 188.515C687.043 174.46 657.543 157.682 630.795 140.959C603.512 123.8 577.299 106.041 549.787 89.808C518.454 71.2869 485.133 54.8358 446.081 43.8321C416.352 35.4976 383.949 31.1397 350.782 30.2681C274.359 28.307 193.044 44.5402 138.249 74.7732" stroke="#F2E5D5" stroke-miterlimit="10"/>
<path d="M1685.97 644.243C1641.18 600.936 1573.01 570.322 1498.96 560.081C1492.77 559.209 1486.5 558.501 1480.24 557.956C1411.76 551.692 1340.31 562.641 1281.46 588.462C1270.84 593.092 1260.44 598.267 1250.05 603.66C1198.85 630.352 1148.18 662.601 1087.19 656.445C1029.57 650.616 989.907 609.162 983.717 568.143C980.583 547.279 984.099 526.634 991.053 506.478C997.702 487.031 1007.41 467.965 1017.34 449.39C1037.67 411.476 1059.83 372.745 1060.29 331.454C1060.75 290.163 1032.63 245.984 981.042 229.424C936.64 215.152 887.729 221.471 838.742 216.95C795.028 212.864 753.607 199.9 714.861 183.884C682.304 170.429 652.194 154.959 624.987 139.706C597.169 124.126 570.574 108.111 542.832 93.6755C511.27 77.1699 477.949 62.7888 438.974 53.3648C409.321 46.2288 377.147 42.7969 343.98 42.4701C267.71 41.7619 185.478 56.9056 130.989 83.162" stroke="#F2E5D5" stroke-miterlimit="10"/>
<path d="M1688.26 640.157C1643.71 596.251 1575.54 564.929 1501.1 554.089C1494.83 553.163 1488.57 552.4 1482.22 551.801C1413.29 544.992 1341.22 555.451 1281.69 580.999C1270.91 585.575 1260.37 590.75 1249.82 596.088C1198.08 622.617 1146.8 655.192 1085.44 648.764C1028.81 642.881 989.831 602.516 982.876 562.369C979.361 541.996 982.265 521.731 988.455 501.903C994.34 482.837 1003.2 464.043 1012.3 445.795C1030.95 408.48 1051.35 370.348 1051.2 329.82C1051.05 289.346 1023.61 246.311 974.087 228.989C930.756 213.845 882.915 217.821 834.539 212.211C791.284 207.145 749.786 194.125 710.581 178.818C677.566 166.017 646.997 151.745 619.256 138.017C590.903 123.963 563.849 109.745 535.955 97.1074C504.163 82.6718 470.766 70.2517 431.866 62.462C402.291 56.5788 370.269 54.0185 337.178 54.2364C260.985 54.7812 177.913 68.8354 123.729 91.0608" stroke="#F2E5D5" stroke-miterlimit="10"/>
<path d="M1690.63 636.017C1646.38 591.512 1578.13 559.481 1503.32 548.042C1497.05 547.061 1490.71 546.244 1484.36 545.591C1415.05 538.237 1342.37 548.26 1282 573.536C1271.07 578.111 1260.37 583.178 1249.74 588.516C1197.47 614.936 1145.58 647.784 1083.83 641.138C1028.27 635.146 989.907 595.979 982.112 556.649C978.214 536.711 980.507 516.828 985.933 497.436C991.13 478.697 999.078 460.284 1007.33 442.254C1024.14 405.538 1042.87 368.006 1042.03 328.294C1041.19 288.583 1014.52 246.692 967.133 228.716C924.871 212.646 878.177 214.335 830.259 207.635C787.386 201.588 745.888 188.46 706.225 173.915C672.828 161.713 641.724 148.748 613.447 136.492C584.636 123.963 557.124 111.543 529 100.702C496.979 88.2824 463.505 77.8779 424.759 71.6679C395.26 66.9832 363.391 65.3489 330.3 66.1116C254.183 67.9092 170.27 80.8195 116.469 99.1227" stroke="#F2E5D5" stroke-miterlimit="10"/>
<path d="M1692.92 631.932C1648.9 586.828 1580.58 554.143 1505.46 542.05C1499.11 541.015 1492.77 540.144 1486.43 539.435C1416.73 531.537 1343.36 541.124 1282.22 566.128C1271.14 570.649 1260.29 575.661 1249.52 580.999C1196.71 607.255 1144.2 640.43 1082.07 633.512C1027.58 627.465 989.83 589.388 981.271 550.929C976.991 531.428 978.596 511.981 983.335 492.969C987.767 474.557 994.951 456.472 1002.29 438.713C1017.42 402.597 1034.31 365.664 1032.86 326.715C1031.4 287.766 1005.42 247.02 960.102 228.39C918.91 211.394 873.362 210.795 825.903 203.059C783.488 196.087 741.914 182.849 701.792 169.068C667.937 157.519 636.374 145.807 607.563 135.021C578.216 124.018 550.322 113.45 521.969 104.353C489.719 93.9481 456.169 85.6135 417.575 80.9833C388.152 77.4969 356.437 76.7888 323.422 78.1506C247.381 81.1467 162.628 93.022 109.132 107.349" stroke="#F2E5D5" stroke-miterlimit="10"/>
<path d="M1695.29 627.846C1651.58 582.143 1583.18 548.75 1507.67 536.058C1501.33 534.968 1494.91 534.097 1488.49 533.28C1418.41 524.836 1344.43 533.988 1282.45 558.664C1271.22 563.131 1260.21 568.143 1249.36 573.427C1196.02 599.52 1142.91 633.021 1080.39 625.885C1026.9 619.784 989.83 582.851 980.507 545.209C975.845 526.198 976.915 507.132 980.813 488.448C984.634 470.417 990.824 452.604 997.32 435.118C1010.69 399.546 1025.83 363.267 1023.76 325.135C1021.7 286.949 996.403 247.292 953.224 228.008C913.102 210.086 868.624 207.199 821.776 198.374C779.744 190.421 738.093 177.075 697.589 164.056C663.275 153.106 631.254 142.647 601.907 133.387C572.102 123.963 543.749 115.138 515.167 107.839C482.611 99.4497 449.061 93.1307 410.621 90.0802C381.351 87.8467 349.712 88.0646 316.697 89.9167C240.809 94.1657 155.215 104.952 101.948 115.247" stroke="#F2E5D5" stroke-miterlimit="10"/>
<path d="M1697.58 623.706C1654.1 577.349 1585.7 543.303 1509.81 530.011C1503.47 528.867 1497.05 527.941 1490.55 527.124C1420.09 518.136 1345.43 526.852 1282.68 551.256C1271.3 555.668 1260.14 560.625 1249.13 565.909C1195.18 591.893 1141.53 625.722 1078.63 618.259C1026.21 612.103 989.754 576.259 979.666 539.49C974.699 520.914 975.081 502.229 978.214 483.981C981.271 466.277 986.621 448.791 992.352 431.631C1003.97 396.659 1017.42 360.979 1014.67 323.61C1011.99 286.241 987.385 247.619 946.269 227.736C907.217 208.833 863.885 203.713 817.497 193.853C775.922 184.919 734.196 171.464 693.156 159.207C658.46 148.912 625.904 139.706 596.023 131.862C565.759 123.963 536.948 116.936 508.136 111.434C475.351 105.115 441.725 100.811 403.437 99.3407C374.243 98.3057 342.757 99.4496 309.819 101.846C234.007 107.348 147.573 117.045 94.6117 123.364" stroke="#F2E5D5" stroke-miterlimit="10"/>
<path d="M1699.95 619.621C1656.77 572.665 1588.3 537.965 1512.03 524.02C1505.61 522.876 1499.19 521.841 1492.69 520.969C1421.85 511.436 1346.57 519.716 1282.99 543.848C1271.45 548.206 1260.14 553.109 1248.98 558.393C1194.49 584.213 1140.23 618.368 1076.88 610.688C1025.44 604.478 989.678 569.778 978.749 533.825C973.4 515.74 973.094 497.436 975.539 479.569C977.908 462.192 982.341 445.033 987.232 428.146C997.167 393.773 1008.78 358.746 1005.42 322.139C1002.06 285.533 978.214 247.946 939.238 227.518C901.256 207.635 859.071 200.281 813.217 189.332C772.025 179.418 730.298 165.908 688.8 154.36C653.646 144.664 620.631 136.71 590.215 130.391C559.416 124.018 530.223 118.788 501.182 115.084C468.167 110.781 434.465 108.493 396.33 108.602C367.212 108.765 335.879 110.835 303.017 113.777C227.282 120.532 140.007 129.139 87.3516 131.426" stroke="#F2E5D5" stroke-miterlimit="10"/>
<path d="M1702.32 615.535C1659.37 567.98 1590.82 532.572 1514.24 518.027C1507.83 516.829 1501.33 515.739 1494.83 514.813C1423.61 504.736 1347.72 512.58 1283.29 536.439C1271.6 540.743 1260.14 545.645 1248.9 550.875C1193.88 576.532 1139.01 611.069 1075.27 603.115C1024.91 596.851 989.601 563.241 978.061 528.214C972.253 510.564 971.413 492.642 973.094 475.156C974.699 458.16 978.367 441.274 982.341 424.659C990.518 390.885 1000.38 356.458 996.403 320.614C992.429 284.77 969.349 248.164 932.36 227.191C895.525 206.273 854.333 196.74 809.014 184.702C768.28 173.807 726.477 160.188 684.521 149.457C648.984 140.414 615.434 133.714 584.483 128.866C553.226 124.018 523.574 120.64 494.304 118.679C461.06 116.391 427.357 116.119 389.222 117.862C360.182 119.224 329.001 122.22 296.139 125.706C220.48 133.66 132.365 141.231 80.0149 139.543" stroke="#F2E5D5" stroke-miterlimit="10"/>
<path d="M1704.61 611.45C1661.97 563.295 1593.34 527.179 1516.38 512.035C1509.89 510.782 1503.39 509.638 1496.82 508.658C1425.21 498.035 1348.64 505.444 1283.45 528.976C1271.6 533.225 1259.99 538.073 1248.6 543.303C1193.04 568.851 1137.56 603.66 1073.44 595.434C1024.07 589.115 989.448 556.649 977.144 522.439C970.954 505.28 969.502 487.74 970.419 470.635C971.336 453.966 974.087 437.406 977.221 421.118C983.64 387.943 991.741 354.115 987.156 319.088C982.57 284.062 960.255 248.381 925.329 226.919C889.563 204.911 849.518 193.254 804.658 180.18C764.383 168.305 722.503 154.632 680.088 144.609C644.093 136.165 610.085 130.718 578.598 127.395C546.883 124.072 516.696 122.492 487.273 122.329C453.8 122.111 420.021 123.854 382.038 127.122C353.074 129.737 322.046 133.605 289.261 137.636C213.755 146.842 124.722 153.324 72.6783 147.659" stroke="#F2E5D5" stroke-miterlimit="10"/>
<path d="M1706.98 607.31C1664.57 558.556 1595.94 521.731 1518.6 505.988C1512.11 504.681 1505.53 503.483 1498.96 502.448C1426.97 491.28 1349.78 498.253 1283.75 521.513C1271.75 525.762 1259.99 530.502 1248.52 535.731C1192.43 561.116 1136.33 596.306 1071.83 587.808C1023.53 581.435 989.525 550.058 976.457 516.72C969.884 499.996 967.821 482.891 967.974 466.114C968.126 449.771 970.037 433.538 972.33 417.523C976.991 384.947 983.411 351.718 978.138 317.454C972.865 283.19 951.39 248.49 918.452 226.537C883.908 203.44 844.856 189.659 800.531 175.495C760.638 162.694 718.682 148.858 675.809 139.597C639.431 131.807 604.888 127.558 572.79 125.761C540.54 123.963 509.971 124.181 480.395 125.815C446.692 127.613 412.837 131.372 375.008 136.274C346.12 140.087 315.245 144.936 282.536 149.457C207.106 159.916 117.233 165.309 65.4945 155.612" stroke="#F2E5D5" stroke-miterlimit="10"/>
<path d="M1709.28 603.224C1667.09 553.871 1598.46 516.393 1520.74 499.996C1514.24 498.635 1507.6 497.382 1501.02 496.347C1428.65 484.635 1350.78 491.172 1284.06 514.16C1271.91 518.354 1259.99 523.093 1248.37 528.268C1191.74 553.49 1135.03 589.061 1070.15 580.236C1022.85 573.808 989.525 543.576 975.692 511.055C968.738 494.821 965.986 478.043 965.452 461.701C964.917 445.74 965.91 429.78 967.362 414.037C970.343 382.006 974.928 349.431 969.043 315.929C963.159 282.428 942.525 248.654 911.573 226.211C878.177 202.024 840.118 186.118 796.327 170.92C756.893 157.138 714.861 143.247 671.529 134.749C634.693 127.559 599.691 124.617 567.059 124.29C534.35 123.963 503.322 126.033 473.517 129.465C439.585 133.278 405.653 139.053 367.977 145.589C339.165 150.601 308.443 156.375 275.734 161.441C200.381 173.153 109.667 177.402 58.3107 163.784" stroke="#F2E5D5" stroke-miterlimit="10"/>
<path d="M1711.65 599.138C1669.77 549.131 1600.99 511 1522.96 494.058C1516.38 492.642 1509.81 491.335 1503.09 490.245C1430.33 477.989 1351.85 484.09 1284.29 506.805C1271.98 510.945 1259.91 515.63 1248.14 520.805C1190.9 545.917 1133.66 581.816 1068.39 572.719C1022.08 566.291 989.448 537.093 974.775 505.443C967.439 489.646 964.076 473.304 962.777 457.343C961.478 441.709 961.707 426.075 962.242 410.604C963.465 379.173 966.292 347.197 959.796 314.512C953.3 281.828 933.507 248.871 904.466 226.047C872.292 200.717 835.227 182.74 791.895 166.452C752.843 151.69 710.81 137.69 667.02 129.955C629.725 123.418 594.265 121.675 561.098 122.873C527.93 124.072 496.444 127.994 466.41 133.169C432.249 138.998 398.24 146.842 360.717 154.904C331.982 161.168 301.412 167.814 268.78 173.425C193.503 186.335 101.948 189.549 50.8979 171.954" stroke="#F2E5D5" stroke-miterlimit="10"/>
<path d="M1713.94 594.999C1672.36 544.447 1603.51 505.607 1525.17 488.012C1518.6 486.541 1511.95 485.234 1505.23 484.036C1432.09 471.234 1352.92 476.845 1284.59 499.288C1272.14 503.374 1259.91 508.004 1248.06 513.125C1190.29 538.074 1132.44 574.353 1066.79 564.929C1021.55 558.447 989.525 530.393 974.087 499.561C966.445 484.199 962.395 468.238 960.331 452.659C958.268 437.352 957.656 422.099 957.351 406.901C956.816 376.068 957.886 344.691 950.778 312.77C943.671 280.848 924.794 248.817 897.664 225.503C866.789 199.028 830.641 178.982 787.845 161.605C749.251 145.862 707.142 131.808 662.893 124.78C625.216 118.897 589.221 118.352 555.519 121.076C521.816 123.8 489.948 129.52 459.684 136.492C425.294 144.391 391.209 154.196 353.762 163.893C325.103 171.356 294.763 178.927 262.131 185.083C187.007 199.246 94.5353 201.371 43.7904 179.745" stroke="#F2E5D5" stroke-miterlimit="10"/>
<path d="M1716.31 590.913C1674.96 539.708 1606.11 500.214 1527.31 482.02C1520.66 480.494 1514.02 479.133 1507.29 477.88C1433.77 464.534 1353.99 469.709 1284.82 491.879C1272.21 495.911 1259.83 500.541 1247.83 505.607C1189.52 530.447 1131.06 567.053 1064.95 557.357C1020.71 550.875 989.449 523.856 973.17 493.895C965.146 479.024 960.408 463.444 957.657 448.246C954.905 433.266 953.377 418.34 952.231 403.414C950.014 373.181 949.326 342.458 941.531 311.299C933.736 280.139 915.853 248.98 890.557 225.284C861.058 197.666 825.75 175.55 783.412 157.137C745.201 140.414 703.092 126.251 658.308 119.986C620.173 114.702 583.719 115.41 549.481 119.659C515.32 123.908 482.993 131.426 452.501 140.196C417.881 150.11 383.72 161.986 346.426 173.207C317.843 181.869 287.656 190.367 255.024 197.067C179.976 212.483 86.6638 213.518 36.2247 187.915" stroke="#F2E5D5" stroke-miterlimit="10"/>
<path d="M1718.6 586.828C1677.48 535.023 1608.63 494.821 1529.45 476.028C1522.8 474.448 1516.08 473.032 1509.35 471.724C1435.45 457.833 1354.98 462.573 1285.05 484.471C1272.29 488.448 1259.76 493.024 1247.68 498.09C1188.84 522.766 1129.76 559.809 1063.27 549.731C1020.09 543.194 989.448 517.319 972.406 488.175C964 473.74 958.65 458.596 955.134 443.779C951.619 429.18 949.25 414.527 947.263 399.873C943.289 370.239 940.843 340.115 932.437 309.719C924.03 279.322 907.141 249.035 883.679 224.958C855.555 196.141 821.012 172.009 779.209 152.507C741.456 134.858 699.27 120.586 654.028 115.084C615.511 110.453 578.522 112.36 543.75 118.134C509.13 123.854 476.268 133.224 445.622 143.791C410.774 155.721 376.612 169.612 339.394 182.468C310.889 192.328 280.854 201.752 248.298 208.997C173.327 225.666 79.2506 225.611 29.0408 196.032" stroke="#F2E5D5" stroke-miterlimit="10"/>
<path d="M1720.97 582.742C1680.16 530.284 1611.15 489.428 1531.67 469.981C1525.02 468.347 1518.22 466.876 1511.42 465.569C1437.13 451.133 1356.05 455.437 1285.28 477.008C1272.37 480.931 1259.68 485.452 1247.45 490.518C1188.07 515.031 1128.39 552.455 1061.52 542.105C1019.33 535.568 989.372 510.728 971.565 482.456C962.777 468.456 956.739 453.694 952.536 439.258C948.256 424.986 945.123 410.659 942.219 396.333C936.487 367.244 932.284 337.773 923.266 308.194C914.248 278.615 898.429 249.144 876.648 224.631C849.976 194.616 816.197 168.468 774.929 147.877C737.558 129.247 695.296 114.866 649.672 110.127C610.696 106.096 573.172 109.201 537.941 116.555C502.787 123.745 469.543 135.021 438.668 147.332C403.59 161.332 369.352 177.184 332.287 191.62C303.858 202.732 273.976 213.082 241.42 220.818C166.526 238.685 71.6084 237.596 21.7042 203.985" stroke="#F2E5D5" stroke-miterlimit="10"/>
<path d="M1723.26 578.602C1682.68 525.599 1613.67 484.036 1533.81 463.989C1527.08 462.301 1520.36 460.775 1513.48 459.413C1438.82 444.433 1357.04 448.301 1285.51 469.6C1272.44 473.522 1259.6 477.989 1247.22 483.001C1187.23 507.405 1126.93 545.21 1059.76 534.478C1018.57 527.942 989.295 504.191 970.648 476.791C961.554 463.281 954.829 448.9 949.861 434.846C944.894 420.955 940.843 406.901 937.098 392.846C929.609 364.357 923.648 335.485 914.019 306.669C904.313 277.852 889.64 249.253 869.617 224.359C844.474 193.145 811.383 164.982 770.573 143.356C733.661 123.745 691.322 109.31 645.239 105.279C605.881 101.901 567.823 106.259 532.057 115.084C496.367 123.8 462.741 136.874 431.637 150.982C396.33 166.998 362.016 184.92 325.103 200.935C296.75 213.246 267.022 224.522 234.542 232.802C159.8 251.922 63.9661 249.744 14.3676 212.157" stroke="#F2E5D5" stroke-miterlimit="10"/>
<path d="M1725.63 574.516C1685.36 520.86 1616.27 478.642 1536.03 457.997C1529.3 456.254 1522.5 454.674 1515.62 453.258C1440.57 437.732 1358.19 441.164 1285.82 462.191C1272.6 466.059 1259.6 470.471 1247.15 475.483C1186.62 499.724 1125.71 538.019 1058.15 526.906C1017.95 520.369 989.372 497.654 969.96 471.125C960.484 458.051 953.147 444.051 947.416 430.433C941.684 416.869 936.793 403.142 932.284 389.36C923.113 361.469 915.394 333.197 905.077 305.198C894.76 277.143 881.233 249.416 862.815 224.14C839.277 191.728 806.721 161.55 766.446 138.834C729.992 118.243 687.578 103.699 640.96 100.43C601.143 97.6521 562.626 103.263 526.325 113.613C490.177 123.854 456.092 138.725 424.759 154.632C389.222 172.663 354.832 192.6 318.072 210.195C289.872 223.705 260.22 235.907 227.817 244.732C153.152 265.105 56.4765 261.782 7.18371 220.218" stroke="#F2E5D5" stroke-miterlimit="10"/>
<path d="M1728 570.431C1684.59 511.654 1607.02 466.168 1517.76 447.102C1428.5 428.091 1328.61 435.772 1247.07 467.966C1186.01 492.043 1124.49 530.72 1056.55 519.28C998.237 509.475 964.611 466.277 944.894 425.912C912.338 359.127 897.588 287.93 855.861 223.759C814.134 159.589 735.571 100.757 636.68 95.4733C556.436 91.2244 481.159 122.656 417.881 158.173C354.603 193.69 295.528 235.035 221.015 256.607C146.503 278.179 48.9107 273.821 -1.76975e-05 228.281" stroke="#F2E5D5" stroke-miterlimit="10"/>
<path opacity="0.5" d="M1860.93 601.3C1827.73 544.5 1793.43 486.6 1743.13 444.2C1692.83 401.8 1622.43 377.2 1560.03 398C1507.33 415.6 1469.53 461.2 1422.33 490.6C1395.03 507.5 1360.23 518.9 1331.33 505C1301.73 490.7 1289.03 455.5 1264.63 433.5C1242.03 413.1 1211.03 405.4 1180.93 400.6C1150.93 395.9 1119.93 393.3 1092.23 380.9C1064.53 368.4 1040.03 343.1 1039.03 312.7C1037.93 279.5 1065.03 251.1 1095.33 237.6C1125.63 224 1159.53 221.3 1191.83 213.8C1243.03 201.9 1291.63 177 1328.73 139.8C1365.83 102.6 1390.63 52.5 1394.23 0H1861.23L1860.93 601.3Z" fill="#332E30"/>
</svg>
